<mxfile host="app.diagrams.net" modified="2023-10-03T20:02:35.971Z" agent="Mozilla/5.0 (Windows NT 10.0; Win64; x64) AppleWebKit/537.36 (KHTML, like Gecko) Chrome/117.0.0.0 Safari/537.36" etag="2oIGabpDCUYayAC0Nq5i" version="22.0.2" type="google">
  <diagram name="Page-1" id="-zOnn2D4De-acvQVYCYg">
    <mxGraphModel grid="1" page="1" gridSize="10" guides="1" tooltips="1" connect="1" arrows="1" fold="1" pageScale="1" pageWidth="850" pageHeight="1100" math="0" shadow="0">
      <root>
        <mxCell id="0" />
        <mxCell id="1" parent="0" />
        <mxCell id="N2Bk6rTOMQvA3hP9f7Mw-11" value="" style="endArrow=none;dashed=1;html=1;dashPattern=1 3;strokeWidth=2;rounded=0;" edge="1" parent="1">
          <mxGeometry width="50" height="50" relative="1" as="geometry">
            <mxPoint x="120" y="440" as="sourcePoint" />
            <mxPoint x="120" y="70" as="targetPoint" />
          </mxGeometry>
        </mxCell>
        <mxCell id="N2Bk6rTOMQvA3hP9f7Mw-12" value="" style="endArrow=none;dashed=1;html=1;dashPattern=1 3;strokeWidth=2;rounded=0;" edge="1" parent="1">
          <mxGeometry width="50" height="50" relative="1" as="geometry">
            <mxPoint x="320" y="440" as="sourcePoint" />
            <mxPoint x="320" y="70" as="targetPoint" />
          </mxGeometry>
        </mxCell>
        <mxCell id="N2Bk6rTOMQvA3hP9f7Mw-13" value="" style="endArrow=none;dashed=1;html=1;dashPattern=1 3;strokeWidth=2;rounded=0;" edge="1" parent="1">
          <mxGeometry width="50" height="50" relative="1" as="geometry">
            <mxPoint x="520" y="440" as="sourcePoint" />
            <mxPoint x="520" y="70" as="targetPoint" />
          </mxGeometry>
        </mxCell>
        <mxCell id="N2Bk6rTOMQvA3hP9f7Mw-15" value="&lt;b&gt;Camada de Apresentação&lt;/b&gt;" style="text;html=1;strokeColor=none;fillColor=none;align=center;verticalAlign=middle;whiteSpace=wrap;rounded=0;" vertex="1" parent="1">
          <mxGeometry x="-10" y="430" width="60" height="30" as="geometry" />
        </mxCell>
        <mxCell id="N2Bk6rTOMQvA3hP9f7Mw-16" value="&lt;b&gt;Camada Web&lt;/b&gt;" style="text;html=1;strokeColor=none;fillColor=none;align=center;verticalAlign=middle;whiteSpace=wrap;rounded=0;" vertex="1" parent="1">
          <mxGeometry x="190" y="430" width="60" height="30" as="geometry" />
        </mxCell>
        <mxCell id="N2Bk6rTOMQvA3hP9f7Mw-17" value="&lt;b&gt;Camada de Aplicação&lt;/b&gt;" style="text;html=1;strokeColor=none;fillColor=none;align=center;verticalAlign=middle;whiteSpace=wrap;rounded=0;" vertex="1" parent="1">
          <mxGeometry x="390" y="430" width="70" height="30" as="geometry" />
        </mxCell>
        <mxCell id="N2Bk6rTOMQvA3hP9f7Mw-18" value="&lt;b&gt;Camada de Dados&lt;br&gt;&lt;/b&gt;" style="text;html=1;strokeColor=none;fillColor=none;align=center;verticalAlign=middle;whiteSpace=wrap;rounded=0;" vertex="1" parent="1">
          <mxGeometry x="600" y="430" width="60" height="30" as="geometry" />
        </mxCell>
        <mxCell id="N2Bk6rTOMQvA3hP9f7Mw-19" value="&lt;b&gt;Console&lt;br&gt;App&lt;br&gt;&lt;/b&gt;" style="html=1;whiteSpace=wrap;" vertex="1" parent="1">
          <mxGeometry y="240" width="65" height="50" as="geometry" />
        </mxCell>
        <mxCell id="N2Bk6rTOMQvA3hP9f7Mw-20" value="Servidor&lt;br&gt;&lt;b&gt;Web&lt;/b&gt;" style="verticalAlign=top;align=left;spacingTop=8;spacingLeft=2;spacingRight=12;shape=cube;size=10;direction=south;fontStyle=4;html=1;whiteSpace=wrap;" vertex="1" parent="1">
          <mxGeometry x="160" y="120" width="110" height="90" as="geometry" />
        </mxCell>
        <mxCell id="N2Bk6rTOMQvA3hP9f7Mw-21" value="" style="endArrow=classic;startArrow=classic;html=1;rounded=0;" edge="1" parent="1" source="N2Bk6rTOMQvA3hP9f7Mw-19" target="N2Bk6rTOMQvA3hP9f7Mw-22">
          <mxGeometry width="50" height="50" relative="1" as="geometry">
            <mxPoint x="340" y="290" as="sourcePoint" />
            <mxPoint x="390" y="240" as="targetPoint" />
          </mxGeometry>
        </mxCell>
        <mxCell id="N2Bk6rTOMQvA3hP9f7Mw-22" value="Servidor de&amp;nbsp;&lt;br&gt;&lt;b&gt;Aplicação&lt;/b&gt;" style="verticalAlign=top;align=left;spacingTop=8;spacingLeft=2;spacingRight=12;shape=cube;size=10;direction=south;fontStyle=4;html=1;whiteSpace=wrap;" vertex="1" parent="1">
          <mxGeometry x="360" y="220" width="115" height="90" as="geometry" />
        </mxCell>
        <mxCell id="N2Bk6rTOMQvA3hP9f7Mw-23" value="" style="endArrow=classic;startArrow=classic;html=1;rounded=0;" edge="1" parent="1" source="N2Bk6rTOMQvA3hP9f7Mw-22" target="N2Bk6rTOMQvA3hP9f7Mw-20">
          <mxGeometry width="50" height="50" relative="1" as="geometry">
            <mxPoint x="380" y="300" as="sourcePoint" />
            <mxPoint x="430" y="250" as="targetPoint" />
          </mxGeometry>
        </mxCell>
        <mxCell id="N2Bk6rTOMQvA3hP9f7Mw-24" value="Servidor de&amp;nbsp;&lt;br&gt;Dados" style="verticalAlign=top;align=left;spacingTop=8;spacingLeft=2;spacingRight=12;shape=cube;size=10;direction=south;fontStyle=4;html=1;whiteSpace=wrap;" vertex="1" parent="1">
          <mxGeometry x="570" y="215" width="120" height="100" as="geometry" />
        </mxCell>
        <mxCell id="N2Bk6rTOMQvA3hP9f7Mw-25" value="" style="endArrow=classic;startArrow=classic;html=1;rounded=0;" edge="1" parent="1" source="N2Bk6rTOMQvA3hP9f7Mw-22" target="N2Bk6rTOMQvA3hP9f7Mw-24">
          <mxGeometry width="50" height="50" relative="1" as="geometry">
            <mxPoint x="380" y="300" as="sourcePoint" />
            <mxPoint x="430" y="250" as="targetPoint" />
          </mxGeometry>
        </mxCell>
        <mxCell id="N2Bk6rTOMQvA3hP9f7Mw-26" value="BD" style="strokeWidth=2;html=1;shape=mxgraph.flowchart.database;whiteSpace=wrap;" vertex="1" parent="1">
          <mxGeometry x="720" y="330" width="60" height="60" as="geometry" />
        </mxCell>
        <mxCell id="N2Bk6rTOMQvA3hP9f7Mw-27" value="" style="endArrow=classic;startArrow=classic;html=1;rounded=0;entryX=0.5;entryY=0;entryDx=0;entryDy=0;entryPerimeter=0;exitX=0;exitY=0;exitDx=45;exitDy=0;exitPerimeter=0;edgeStyle=orthogonalEdgeStyle;" edge="1" parent="1" source="N2Bk6rTOMQvA3hP9f7Mw-24" target="N2Bk6rTOMQvA3hP9f7Mw-26">
          <mxGeometry width="50" height="50" relative="1" as="geometry">
            <mxPoint x="380" y="310" as="sourcePoint" />
            <mxPoint x="430" y="260" as="targetPoint" />
          </mxGeometry>
        </mxCell>
        <mxCell id="N2Bk6rTOMQvA3hP9f7Mw-28" value="Browser" style="html=1;whiteSpace=wrap;" vertex="1" parent="1">
          <mxGeometry x="-30" y="120" width="110" height="50" as="geometry" />
        </mxCell>
        <mxCell id="N2Bk6rTOMQvA3hP9f7Mw-29" value="" style="endArrow=classic;startArrow=classic;html=1;rounded=0;" edge="1" parent="1" source="N2Bk6rTOMQvA3hP9f7Mw-28" target="N2Bk6rTOMQvA3hP9f7Mw-20">
          <mxGeometry width="50" height="50" relative="1" as="geometry">
            <mxPoint x="380" y="310" as="sourcePoint" />
            <mxPoint x="430" y="260" as="targetPoint" />
          </mxGeometry>
        </mxCell>
      </root>
    </mxGraphModel>
  </diagram>
</mxfile>
